<svg width="45" height="44" viewBox="0 0 45 44" fill="none" xmlns="http://www.w3.org/2000/svg">
<path d="M34.8725 9.62377C28.0374 2.79063 16.9569 2.79227 10.1238 9.62753C3.29063 16.4628 3.29227 27.5432 10.1275 34.3763C16.9628 41.2094 28.0432 41.2078 34.8763 34.3725C38.158 31.0899 40.0011 26.638 40 21.9963C39.9991 17.3554 38.1547 12.9049 34.8725 9.62377ZM31.5032 28.8773C31.5024 28.8781 31.5017 28.8789 31.5009 28.8797V28.8738L30.6142 29.7547C29.4674 30.9159 27.7973 31.3936 26.21 31.0147C24.6107 30.5866 23.0904 29.9052 21.7067 28.9963C20.4211 28.1747 19.2297 27.2143 18.1542 26.1322C17.1645 25.1498 16.2754 24.0711 15.5 22.9122C14.6518 21.6651 13.9804 20.3067 13.505 18.8755C12.9599 17.1941 13.4116 15.3491 14.6717 14.1097L15.71 13.0713C15.9986 12.7814 16.4677 12.7803 16.7576 13.069C16.7584 13.0698 16.7592 13.0705 16.76 13.0713L20.0383 16.3497C20.3283 16.6383 20.3293 17.1074 20.0406 17.3973C20.0398 17.3981 20.0391 17.3988 20.0383 17.3997L18.1133 19.3247C17.5609 19.871 17.4915 20.7391 17.95 21.3663C18.6462 22.3219 19.4167 23.221 20.2542 24.0555C21.1879 24.9933 22.2029 25.8463 23.2875 26.6047C23.9141 27.0418 24.7637 26.9681 25.3058 26.4297L27.1666 24.5397C27.4553 24.2497 27.9244 24.2487 28.2143 24.5374C28.215 24.5382 28.2158 24.5389 28.2166 24.5397L31.5008 27.8297C31.7908 28.1183 31.7919 28.5874 31.5032 28.8773Z" fill="#72CC37"/>
<circle cx="22.5" cy="22" r="21.75" stroke="#72CC37" stroke-width="0.5"/>
</svg>
